<svg width="256" height="256" viewBox="0 0 94 46" fill="none" xmlns="http://www.w3.org/2000/svg">
  <defs>
    <linearGradient id="mmIconSigma" x1="2" y1="6" x2="40" y2="41" gradientUnits="userSpaceOnUse">
      <stop offset="0" stop-color="#ffc862" />
      <stop offset="0.56" stop-color="#ff961a" />
      <stop offset="1" stop-color="#e96800" />
    </linearGradient>
    <linearGradient id="mmIconDelta" x1="44" y1="6" x2="92" y2="41" gradientUnits="userSpaceOnUse">
      <stop offset="0" stop-color="#70d3ff" />
      <stop offset="0.56" stop-color="#2799ff" />
      <stop offset="1" stop-color="#0d59de" />
    </linearGradient>
  </defs>
  <path d="M2 6H42V12H20L31.5 23L20 34H42V40H2L24.5 23L2 6Z" fill="url(#mmIconSigma)" />
  <path d="M2 6H42V12H20L31.5 23L20 34H42V40H2L24.5 23L2 6Z" fill="#fff4e4" fill-opacity="0.16" />
  <path fill-rule="evenodd" clip-rule="evenodd" d="M68 6L92 40H44L68 6ZM68 17L78 34H58L68 17Z" fill="url(#mmIconDelta)" />
  <path fill-rule="evenodd" clip-rule="evenodd" d="M68 6L92 40H44L68 6ZM68 17L78 34H58L68 17Z" fill="#ecf8ff" fill-opacity="0.14" />
</svg>
